<?xml version="1.0" standalone="no"?>
<!DOCTYPE svg PUBLIC "-//W3C//DTD SVG 20010904//EN"
 "http://www.w3.org/TR/2001/REC-SVG-20010904/DTD/svg10.dtd">
<svg version="1.0" xmlns="http://www.w3.org/2000/svg"
 width="2000.000000pt" height="529.000000pt" viewBox="0 0 2000.000000 529.000000"
 preserveAspectRatio="xMidYMid meet">

<g transform="translate(0.000000,529.000000) scale(0.100000,-0.100000)"
fill="#2E3436" stroke="none">
<path d="M9315 5254 c-178 -30 -356 -97 -469 -178 -89 -64 -195 -180 -238
-261 -64 -123 -82 -207 -82 -380 0 -277 66 -436 263 -639 102 -105 227 -201
529 -405 283 -191 357 -247 461 -346 185 -177 251 -315 251 -532 0 -158 -39
-260 -137 -355 -64 -63 -149 -112 -230 -134 -95 -26 -285 -8 -449 42 -64 19
-119 33 -122 30 -20 -20 -162 110 -232 214 -116 170 -198 437 -229 741 -4 48
-11 92 -15 98 -9 14 -83 15 -91 1 -4 -6 -9 -181 -11 -388 -2 -207 -6 -484 -9
-615 l-5 -237 30 0 c34 0 34 2 19 -73 l-12 -57 -55 0 -55 0 6 38 c10 60 21
702 13 702 -16 0 -66 -42 -66 -56 0 -7 9 -19 20 -26 11 -7 20 -17 20 -21 0
-12 -42 -46 -57 -47 -25 0 -24 -23 3 -51 27 -28 27 -29 8 -44 -10 -8 -24 -15
-30 -15 -6 0 -17 -7 -24 -15 -10 -13 -9 -19 6 -36 19 -21 18 -21 -9 -45 -28
-24 -57 -32 -57 -15 0 5 7 11 15 15 25 9 17 39 -17 69 l-33 27 28 21 c15 11
27 24 27 29 0 4 -16 18 -36 29 -34 20 -36 24 -31 59 4 24 1 44 -8 55 -7 11
-11 25 -9 32 6 14 -66 175 -78 175 -4 0 -10 -9 -13 -20 -3 -11 -11 -20 -16
-20 -11 0 -12 -4 5 52 20 63 34 88 51 88 12 0 136 -37 252 -75 23 -7 44 -11
47 -8 3 4 6 32 6 63 0 50 -5 64 -50 132 -85 131 -94 176 -31 143 33 -17 61
-20 61 -6 0 4 -18 47 -41 95 -42 90 -45 123 -9 112 11 -3 29 -9 39 -12 28 -9
18 21 -27 82 -68 90 -100 148 -112 204 -13 60 -11 115 5 114 9 0 90 -95 228
-267 39 -49 63 -72 65 -63 3 12 17 16 56 16 l53 0 8 -92 7 -93 52 -52 c57 -57
75 -64 83 -33 8 29 26 25 76 -17 25 -21 89 -72 142 -113 54 -41 103 -80 109
-85 20 -18 100 -69 136 -86 116 -56 174 -80 185 -77 15 3 -30 108 -69 163 -48
67 -60 115 -30 115 9 0 41 -22 71 -50 29 -27 65 -55 78 -62 12 -7 60 -34 105
-60 45 -27 87 -48 93 -48 5 0 35 -12 65 -26 30 -14 70 -28 90 -31 l35 -6 -28
50 c-34 64 -104 152 -175 221 -84 82 -194 165 -440 332 -261 177 -468 331
-525 389 -21 23 -46 41 -55 41 -8 0 -49 -29 -90 -65 -41 -35 -83 -64 -92 -65
-9 0 -38 25 -65 56 -105 124 -155 179 -173 191 -17 12 -39 0 -204 -109 -102
-68 -224 -149 -273 -181 -48 -32 -119 -80 -158 -107 -38 -28 -113 -79 -165
-115 -52 -35 -121 -87 -154 -116 -51 -46 -59 -51 -68 -35 -14 25 -31 7 -69
-70 -21 -43 -38 -64 -49 -64 -10 0 -32 -17 -48 -37 l-30 -38 -18 38 c-10 20
-23 36 -28 34 -6 -2 -24 -30 -41 -63 -28 -56 -32 -59 -63 -56 -27 3 -35 -1
-49 -26 -11 -18 -40 -41 -78 -60 -81 -40 -164 -111 -164 -139 -1 -13 5 -23 12
-23 6 0 57 -7 111 -15 55 -8 151 -15 215 -16 115 0 205 -10 218 -23 4 -3 -4
-20 -16 -37 -17 -22 -20 -33 -12 -43 15 -18 5 -41 -25 -61 -31 -20 -32 -52 -2
-57 39 -5 32 -34 -22 -90 -53 -55 -58 -78 -15 -78 45 0 31 -34 -30 -71 -30
-18 -55 -37 -55 -41 0 -5 11 -13 24 -20 45 -20 39 -36 -24 -68 -32 -16 -62
-34 -65 -41 -4 -6 2 -21 14 -33 12 -12 21 -27 21 -33 0 -6 -27 -23 -60 -39
-38 -18 -60 -34 -58 -43 7 -32 73 -40 354 -42 151 -1 277 -6 279 -10 3 -4 -24
-22 -60 -40 -132 -66 -107 -69 553 -69 l567 0 42 -25 c39 -22 60 -25 260 -36
458 -25 438 -21 323 -68 -30 -13 -59 -27 -64 -31 -18 -17 38 -31 138 -33 100
-2 106 -1 133 24 15 14 48 33 73 43 25 10 56 23 70 28 14 6 41 14 60 19 34 7
90 22 208 54 31 9 75 20 97 25 183 41 226 54 273 82 42 26 41 44 -5 64 -66 27
-97 27 -200 1 -139 -37 -253 -50 -443 -50 -175 0 -278 12 -400 45 -96 26 -281
101 -344 140 -27 16 -71 35 -98 41 -56 14 -58 23 -25 87 20 41 26 45 62 48 33
2 60 -7 140 -49 54 -28 125 -69 157 -90 93 -59 229 -98 363 -101 115 -4 464
20 555 38 113 21 259 68 345 112 108 54 183 108 272 199 86 86 94 80 28 -22
-54 -85 -180 -203 -280 -262 -50 -30 -82 -55 -74 -57 8 -3 41 -7 74 -9 63 -5
242 -32 285 -43 84 -21 90 -25 90 -55 0 -24 -7 -32 -50 -54 -28 -14 -70 -30
-93 -34 -23 -5 -58 -15 -77 -22 -238 -85 -250 -92 -250 -149 0 -31 6 -43 29
-59 16 -12 39 -21 51 -21 12 0 46 -7 76 -16 71 -20 423 -17 467 5 15 8 27 18
27 22 0 12 -56 34 -105 43 -61 10 -155 39 -155 47 0 15 69 31 170 40 58 5 188
16 290 23 102 8 217 19 255 25 156 22 372 31 786 31 407 1 651 9 692 25 25 10
21 22 -14 40 -17 9 -28 19 -26 22 3 3 68 6 144 7 145 3 342 14 381 22 12 2 22
11 22 19 0 7 -10 17 -22 21 -40 12 -128 68 -128 82 0 7 11 18 25 24 35 16 31
41 -7 56 -89 35 -108 57 -61 68 70 17 69 42 -2 77 -66 32 -70 52 -15 67 22 6
40 17 40 25 0 7 -21 24 -47 37 -78 37 -88 64 -33 85 41 15 38 35 -10 62 -45
25 -54 62 -20 83 11 7 20 18 20 24 0 6 -9 19 -20 29 -11 10 -20 28 -20 40 0
12 -11 42 -24 66 -14 24 -28 61 -31 82 -9 46 -41 53 -51 10 -4 -16 -20 -50
-37 -77 -25 -40 -28 -51 -19 -67 10 -16 7 -25 -25 -60 l-37 -41 27 -22 c15
-12 27 -27 27 -33 0 -11 -45 -53 -78 -73 -15 -9 -14 -13 12 -34 24 -20 26 -26
17 -45 -19 -35 -81 -72 -103 -60 -22 12 -23 27 -1 51 16 18 15 20 -11 45 l-28
25 32 19 c35 22 32 34 -19 83 -38 36 -38 44 -3 73 l27 22 -42 41 c-48 47 -52
56 -23 65 28 9 25 27 -11 61 -24 23 -30 35 -26 59 2 16 1 37 -3 45 -5 8 -16
34 -26 58 -9 23 -22 41 -27 39 -19 -6 -49 -76 -51 -117 -1 -22 -11 -53 -24
-69 -12 -17 -22 -34 -22 -39 0 -6 -11 -17 -25 -26 -30 -20 -32 -47 -5 -64 28
-17 25 -30 -17 -69 l-36 -35 28 -26 28 -26 -22 -15 c-12 -9 -34 -26 -49 -38
l-27 -23 23 -18 24 -18 -28 -33 -28 -33 27 -20 c15 -11 27 -27 27 -37 0 -24
-52 -71 -78 -71 -28 0 -28 17 -1 46 l20 22 -27 25 c-25 23 -26 29 -16 51 10
23 8 29 -16 51 -23 22 -25 28 -14 45 17 28 15 38 -13 72 -14 16 -25 37 -25 46
0 27 -24 82 -35 82 -15 0 -45 -33 -45 -48 0 -16 -33 -85 -49 -101 -8 -9 -11
-27 -8 -47 4 -26 0 -37 -24 -60 -30 -29 -37 -62 -18 -81 8 -8 5 -19 -12 -42
-12 -17 -27 -31 -31 -31 -11 0 -48 85 -48 109 0 26 -29 61 -45 55 -8 -4 -15
-17 -15 -31 0 -28 -22 -74 -45 -93 -9 -7 -15 -9 -13 -4 1 5 -3 18 -9 29 -5 11
-13 40 -17 65 -8 52 -35 140 -43 140 -10 0 -32 -34 -33 -48 0 -8 -6 -28 -14
-45 -7 -18 -22 -59 -33 -92 -12 -37 -25 -60 -33 -60 -18 0 -59 80 -59 118 -2
54 -61 13 -61 -43 0 -14 -7 -33 -14 -43 -12 -15 -15 -15 -26 -2 -7 8 -20 15
-30 15 -24 0 -34 15 -54 80 -9 30 -23 63 -31 74 -13 17 -16 15 -38 -36 -14
-31 -30 -59 -37 -63 -14 -9 -39 23 -40 50 0 18 -19 85 -41 143 -12 32 -28 27
-44 -12 -8 -19 -19 -37 -24 -40 -12 -8 -28 14 -33 43 -8 63 -45 20 -68 -79
-19 -85 -40 -140 -54 -140 -12 0 -38 69 -51 133 -3 15 -12 27 -20 27 -18 0
-32 -26 -64 -120 -20 -58 -31 -76 -47 -78 -16 -2 -24 6 -36 35 -9 21 -24 57
-33 81 -18 42 -18 43 9 110 43 108 56 170 63 294 13 253 -47 437 -208 634 -93
114 -222 221 -487 403 -523 360 -622 433 -709 523 -125 131 -167 234 -167 408
-1 86 4 117 23 172 64 178 224 284 446 295 237 12 425 -80 575 -278 108 -144
193 -358 225 -565 10 -60 19 -115 21 -121 2 -8 22 -13 52 -13 l49 0 7 413 c3
226 9 463 12 525 l7 112 -51 0 c-56 0 -53 5 -72 -94 -14 -70 -45 -106 -89
-106 -17 0 -70 21 -118 47 -240 128 -335 164 -476 183 -107 14 -375 11 -472
-6z m-1605 -2292 c0 -8 9 -25 20 -39 19 -25 19 -75 -1 -97 -15 -17 -10 -34 22
-71 l31 -35 -26 -10 c-14 -5 -26 -12 -26 -16 0 -3 21 -26 47 -49 45 -42 47
-45 30 -63 -25 -27 -21 -40 13 -47 16 -4 32 -11 35 -16 4 -5 39 -9 78 -9 60 0
75 -3 90 -20 9 -11 17 -24 17 -29 0 -14 -33 -38 -69 -50 -30 -10 -38 -8 -65
12 -38 29 -96 50 -96 36 0 -6 10 -28 22 -49 13 -21 20 -42 16 -46 -4 -3 -37
-3 -74 1 l-66 7 5 33 c6 36 -7 55 -35 55 -29 0 -32 26 -9 63 29 47 27 66 -9
78 -35 13 -37 25 -12 69 17 30 17 31 -6 50 l-23 19 22 30 c21 29 22 31 5 50
-13 14 -14 21 -6 26 8 5 10 21 7 42 -4 24 1 48 15 78 19 39 23 42 34 27 8 -9
14 -23 14 -30z m-446 -268 c7 -18 8 -84 2 -84 -24 0 -31 15 -28 55 4 46 15 58
26 29z m230 -130 c25 -9 20 -21 -31 -75 l-47 -50 27 -22 c25 -20 26 -24 13
-42 -21 -30 -84 -61 -97 -48 -8 8 -4 20 12 43 16 22 20 34 12 37 -21 8 -63 44
-63 55 0 6 7 20 16 29 15 17 15 20 0 43 l-16 25 73 4 c39 1 75 4 79 5 3 1 13
-1 22 -4z m516 -224 c0 -5 -16 -20 -35 -32 -40 -26 -43 -38 -15 -56 24 -15 26
-38 3 -46 -11 -5 -28 4 -51 27 l-34 34 29 30 c15 17 37 35 48 41 25 14 55 15
55 2z m-303 -66 c12 -8 29 -14 36 -14 21 0 96 -44 141 -83 45 -38 42 -57 -10
-57 -50 0 -43 -20 29 -84 l62 -55 -35 -1 c-55 0 -180 45 -188 68 -1 5 12 13
29 18 18 5 34 14 36 19 1 6 -25 28 -59 50 -49 32 -63 46 -65 69 -2 16 -13 42
-24 57 -10 15 -19 30 -19 34 0 9 40 -4 67 -21z m-267 -48 c0 -12 -34 -36 -51
-36 -26 0 -24 19 4 30 24 10 47 12 47 6z m5267 -122 c-3 -3 -12 -4 -19 -1 -8
3 -5 6 6 6 11 1 17 -2 13 -5z"/>
<path d="M9723 4581 c-11 -11 -31 -36 -44 -57 -27 -45 -99 -119 -153 -159
l-39 -28 34 -28 c46 -38 375 -268 394 -275 10 -4 14 -2 11 7 -3 8 -14 43 -25
79 -11 36 -36 110 -56 165 -37 107 -45 162 -21 148 8 -4 64 -65 124 -134 144
-165 178 -195 253 -233 48 -24 70 -43 95 -81 45 -67 118 -171 179 -255 28 -37
59 -81 70 -96 42 -59 78 -94 133 -130 31 -21 62 -43 68 -49 6 -5 26 -24 45
-40 49 -44 151 -163 185 -215 79 -124 185 -250 210 -250 6 0 17 -7 24 -15 7
-8 19 -15 28 -15 8 0 24 -7 34 -17 25 -22 34 -9 18 24 -7 16 -16 44 -20 63 -4
19 -11 43 -15 53 -12 28 11 20 77 -29 61 -44 434 -234 461 -234 8 0 17 -3 21
-7 13 -13 100 -43 125 -43 23 0 23 1 7 23 -35 48 -55 81 -51 86 6 6 133 -29
165 -46 14 -7 30 -13 36 -13 10 0 59 -21 96 -41 10 -5 27 -9 39 -9 30 0 19 28
-56 140 -56 83 -75 102 -151 155 -117 81 -187 137 -199 161 -5 11 -27 45 -48
77 -39 59 -63 114 -54 124 3 3 84 -33 179 -80 239 -118 288 -139 288 -123 0
17 -51 99 -107 173 -24 31 -43 60 -43 64 0 4 -17 33 -38 65 -36 56 -82 157
-82 180 0 7 7 17 15 24 22 18 19 30 -26 130 -22 50 -39 95 -37 100 2 6 48 -35
103 -90 55 -55 130 -121 166 -147 37 -26 81 -68 98 -94 38 -55 140 -156 278
-276 143 -123 165 -140 217 -169 47 -26 71 -24 63 5 -4 16 -2 16 28 1 38 -19
156 -102 180 -126 24 -24 167 -104 186 -104 9 0 29 -6 45 -14 35 -17 94 -28
94 -18 0 4 -22 21 -48 39 -88 59 -137 94 -152 106 -8 7 -31 23 -50 37 -19 14
-75 59 -125 100 -49 42 -124 102 -166 133 -69 52 -80 57 -123 56 -38 -2 -55 4
-100 35 -48 33 -83 69 -259 269 -28 32 -78 76 -111 99 -59 39 -191 168 -224
218 -38 59 -105 129 -133 140 -40 17 -68 2 -118 -64 -51 -68 -200 -205 -284
-261 -37 -25 -69 -45 -72 -45 -22 0 -146 -72 -205 -119 -97 -78 -237 -164
-254 -158 -17 7 -203 133 -230 156 -28 24 -187 244 -231 320 -5 9 -36 53 -67
96 -52 72 -65 83 -130 115 -59 28 -93 55 -179 142 -59 59 -127 138 -152 175
-47 70 -113 123 -152 123 -12 0 -30 -9 -42 -19z"/>
<path d="M9182 2297 c-6 -7 -13 -29 -14 -48 -3 -30 1 -36 31 -51 19 -10 36
-16 38 -14 8 7 -16 100 -29 113 -12 12 -16 12 -26 0z"/>
<path d="M9690 2160 c-8 -5 -36 -10 -62 -10 -26 0 -50 -4 -53 -10 -3 -5 2 -10
12 -10 30 1 153 26 160 33 10 11 -40 8 -57 -3z"/>
<path d="M724 1090 c-98 -14 -155 -40 -210 -94 -59 -60 -80 -122 -71 -213 11
-102 73 -177 247 -295 182 -125 230 -183 233 -281 3 -125 -108 -194 -248 -156
-55 15 -99 51 -132 106 -28 49 -62 166 -63 218 0 38 -15 64 -29 50 -5 -6 -11
-100 -12 -210 -3 -179 -2 -200 13 -203 11 -2 18 7 23 28 6 28 10 31 34 27 14
-3 55 -17 91 -32 93 -40 256 -47 358 -16 142 43 220 126 229 244 9 105 -14
165 -95 245 -37 37 -114 99 -171 137 -122 82 -196 146 -218 188 -20 40 -21
114 0 153 25 47 95 78 159 71 116 -14 196 -117 233 -299 3 -16 12 -28 20 -28
12 0 15 16 15 78 0 42 3 121 7 175 5 87 4 97 -11 97 -10 0 -21 -13 -27 -30
-12 -34 -41 -40 -75 -15 -66 45 -198 70 -300 55z"/>
<path d="M2922 1089 c-212 -27 -365 -156 -438 -369 -29 -85 -27 -292 4 -381
58 -168 181 -279 357 -324 129 -33 321 -10 438 52 70 37 166 137 201 209 43
87 56 139 62 244 17 282 -126 494 -373 554 -79 19 -175 25 -251 15z m159 -42
c56 -30 121 -123 149 -215 70 -224 38 -572 -65 -714 -60 -82 -122 -107 -205
-82 -142 42 -229 268 -217 559 13 296 109 474 258 475 20 0 56 -10 80 -23z"/>
<path d="M10375 1089 c-122 -18 -199 -56 -288 -139 -68 -64 -123 -153 -148
-245 -9 -31 -14 -98 -14 -175 0 -139 19 -215 75 -303 117 -184 370 -270 614
-207 104 26 169 63 241 136 246 248 188 735 -105 877 -105 51 -259 74 -375 56z
m162 -40 c105 -51 176 -214 190 -435 15 -243 -57 -491 -162 -560 -67 -44 -150
-34 -218 26 -89 79 -135 215 -144 425 -11 266 60 483 177 543 55 28 101 28
157 1z"/>
<path d="M16435 1094 c-242 -30 -414 -174 -471 -395 -22 -84 -22 -244 0 -328
47 -181 185 -313 373 -357 81 -19 251 -14 326 10 176 56 306 193 352 371 17
68 20 227 5 306 -34 177 -180 330 -356 373 -64 16 -181 26 -229 20z m94 -30
c85 -17 174 -153 207 -313 21 -107 15 -372 -11 -466 -35 -123 -100 -222 -165
-247 -77 -30 -175 7 -230 87 -72 105 -102 228 -102 425 1 264 67 442 187 504
32 17 64 20 114 10z"/>
<path d="M19125 1091 c-120 -17 -206 -62 -252 -132 -38 -57 -46 -183 -15 -250
30 -68 93 -131 209 -210 155 -104 198 -142 227 -201 62 -125 5 -241 -125 -255
-75 -7 -133 11 -184 58 -52 48 -82 114 -104 233 -12 66 -21 91 -31 91 -13 0
-15 -33 -18 -208 -2 -195 -1 -208 15 -205 10 2 19 14 21 26 5 36 25 36 114 1
79 -32 90 -33 213 -34 113 0 138 3 193 24 77 29 153 95 177 153 11 27 18 70
18 114 1 127 -54 201 -252 338 -216 150 -250 188 -251 281 0 79 73 145 160
145 112 0 222 -127 245 -283 6 -37 11 -47 26 -47 18 0 19 10 19 175 0 136 -3
175 -13 175 -7 0 -18 -13 -24 -30 -14 -36 -29 -37 -91 -6 -89 44 -181 60 -277
47z"/>
<path d="M1592 1060 c2 -8 19 -17 38 -21 19 -4 40 -15 47 -25 14 -20 21 -337
15 -714 -4 -227 -6 -234 -68 -246 -19 -3 -34 -12 -34 -20 0 -12 42 -14 240
-14 198 0 240 2 240 14 0 8 -15 17 -35 20 -66 13 -65 2 -65 496 0 350 3 450
13 464 7 10 28 21 47 25 19 4 36 13 38 21 2 13 -33 15 -238 15 -205 0 -240 -2
-238 -15z"/>
<path d="M4063 1072 c-126 -3 -153 -13 -84 -32 69 -18 66 2 66 -469 0 -475 1
-469 -68 -506 -69 -37 -50 -45 108 -45 122 0 145 2 145 15 0 8 -7 15 -15 15
-8 0 -33 7 -55 16 -72 29 -74 41 -78 349 -2 149 -2 292 0 320 l3 50 324 -383
325 -382 48 0 48 0 0 466 c0 543 -3 527 93 558 10 3 17 11 15 17 -5 16 -293
14 -293 -3 0 -7 16 -15 35 -18 46 -8 77 -25 92 -53 10 -16 14 -98 16 -302 l3
-280 -24 25 c-14 14 -142 160 -286 325 -144 165 -270 305 -279 310 -10 6 -70
9 -139 7z"/>
<path d="M7673 1073 c-231 -2 -383 -7 -383 -13 0 -5 15 -12 34 -16 73 -13 71
5 74 -484 1 -264 -1 -447 -7 -463 -7 -17 -23 -29 -52 -39 -24 -8 -45 -20 -47
-26 -3 -9 97 -12 417 -12 231 0 421 3 423 8 2 4 2 87 0 184 -3 144 -6 178 -17
178 -8 0 -19 -18 -25 -42 -35 -134 -78 -214 -138 -255 -73 -48 -229 -56 -264
-13 -16 20 -18 45 -18 242 l0 220 43 -7 c91 -15 132 -50 167 -143 11 -27 25
-48 36 -51 15 -3 16 4 11 65 -4 38 -7 133 -7 212 0 119 -2 142 -15 142 -8 0
-15 -6 -15 -13 0 -7 -12 -37 -26 -66 -35 -70 -91 -111 -151 -111 l-44 0 3 221
c4 264 -2 252 123 247 145 -6 215 -66 254 -218 13 -51 24 -76 35 -78 14 -3 16
14 18 142 1 80 2 156 2 169 1 17 -5 22 -24 22 -14 0 -197 -1 -407 -2z"/>
<path d="M8663 1072 c-68 -1 -123 -6 -123 -11 0 -11 25 -21 50 -21 10 0 28
-12 39 -26 21 -26 21 -37 20 -443 0 -295 -4 -426 -12 -451 -9 -24 -24 -42 -55
-58 -23 -13 -40 -28 -37 -33 4 -5 69 -9 146 -9 111 0 139 3 139 14 0 7 -20 19
-45 26 -51 14 -82 46 -90 94 -3 17 -4 165 -3 328 l3 296 320 -378 320 -379 47
0 47 -1 3 468 c3 518 3 512 68 544 63 32 44 39 -105 39 -107 0 -140 -3 -140
-13 0 -7 18 -16 41 -20 59 -12 83 -43 94 -119 12 -80 13 -512 2 -507 -5 2
-139 151 -298 332 -159 182 -293 330 -299 331 -5 0 -65 -1 -132 -3z"/>
<path d="M11533 1072 c-140 -1 -233 -6 -233 -12 0 -5 13 -16 30 -25 16 -8 35
-25 42 -38 7 -12 101 -236 209 -497 l196 -475 69 0 69 0 156 431 c86 237 169
454 184 482 15 28 45 65 67 82 21 18 38 36 36 41 -4 13 -301 14 -306 1 -1 -5
16 -16 39 -23 62 -20 81 -53 81 -132 -1 -71 -27 -159 -143 -471 l-62 -168
-138 343 c-76 189 -138 359 -139 377 0 34 12 44 73 57 16 3 27 11 25 17 -5 15
18 14 -255 10z"/>
<path d="M12951 1057 c-5 -12 -58 -150 -119 -307 -255 -659 -249 -647 -309
-685 -63 -39 -45 -46 117 -43 150 3 193 15 112 31 -21 4 -50 19 -63 33 -35 37
-31 112 13 234 l34 95 157 3 157 3 13 -33 c8 -18 34 -90 58 -160 50 -146 49
-156 -22 -174 -24 -6 -44 -15 -44 -20 0 -5 104 -10 243 -12 155 -1 242 1 242
8 0 5 -19 29 -42 52 -37 39 -54 77 -170 378 -71 184 -153 399 -184 477 l-55
142 -65 0 c-58 0 -66 -3 -73 -22z m21 -419 l65 -183 -74 -3 c-41 -2 -105 -2
-142 0 l-68 3 70 183 c39 100 73 182 77 182 4 0 36 -82 72 -182z"/>
<path d="M13754 1069 c-2 -3 0 -90 3 -192 7 -206 17 -234 48 -125 50 181 144
287 253 288 l33 0 -3 -465 -3 -465 -26 -26 c-19 -19 -41 -28 -80 -32 -30 -4
-54 -11 -54 -17 0 -6 108 -11 298 -13 237 -2 298 0 295 10 -3 7 -25 16 -50 19
-59 9 -87 24 -98 55 -6 15 -10 216 -10 480 l0 454 29 0 c46 0 113 -34 149 -74
41 -47 64 -93 93 -186 45 -145 57 -123 60 108 l2 183 -467 2 c-257 1 -470 -1
-472 -4z"/>
<path d="M15073 1066 c-7 -11 17 -26 43 -26 11 0 29 -9 40 -21 18 -20 19 -45
22 -448 2 -234 0 -441 -3 -458 -6 -35 -45 -63 -85 -63 -11 0 -20 -7 -20 -15 0
-13 34 -15 245 -15 211 0 245 2 245 15 0 8 -9 15 -20 15 -39 0 -77 28 -84 61
-3 17 -6 219 -6 448 0 479 -2 468 83 486 16 3 27 10 25 16 -4 13 -477 18 -485
5z"/>
<path d="M17543 1072 c-68 -1 -123 -6 -123 -11 0 -11 25 -21 50 -21 10 0 28
-12 39 -26 21 -26 21 -37 20 -443 0 -295 -4 -426 -12 -451 -8 -24 -24 -41 -51
-55 -21 -11 -39 -25 -40 -30 -1 -6 54 -11 142 -13 116 -2 142 0 142 11 0 8
-19 20 -45 27 -51 14 -82 46 -90 94 -3 17 -4 165 -3 328 l3 296 320 -378 320
-379 47 0 47 -1 3 468 c3 520 2 512 71 545 20 10 37 23 37 28 0 5 -60 9 -135
9 -74 0 -138 0 -142 0 -5 0 -8 -5 -8 -12 0 -7 18 -16 41 -20 59 -12 83 -43 94
-119 12 -80 13 -512 2 -507 -5 2 -139 151 -298 332 -159 182 -293 330 -299
331 -5 0 -65 -1 -132 -3z"/>
<path d="M5940 1061 c0 -10 10 -14 61 -25 47 -10 49 -26 49 -495 0 -488 2
-471 -68 -488 -82 -20 -29 -28 206 -31 202 -2 242 0 242 12 0 8 -14 16 -34 20
-67 13 -71 24 -74 257 l-4 209 59 0 c103 0 122 -29 164 -257 42 -232 66 -258
234 -258 91 0 104 2 147 28 48 28 64 44 55 54 -4 3 -19 1 -34 -4 -37 -14 -67
-1 -81 34 -7 15 -23 79 -37 140 -26 122 -40 156 -77 190 -33 31 -105 61 -169
71 l-54 8 60 13 c179 38 272 141 263 291 -5 86 -36 137 -110 180 -93 53 -153
60 -492 60 -183 0 -306 -4 -306 -9z m564 -44 c14 -10 33 -40 46 -74 19 -50 21
-73 18 -163 -5 -111 -16 -147 -60 -186 -31 -29 -81 -44 -140 -44 l-50 0 4 223
c2 122 8 230 12 239 17 37 116 40 170 5z"/>
</g>
</svg>
